# xmcd
#
# Track frame offsets:
#  150
#  18913
#  37278
#  48623
#  67093
#  89533
#  104838
#  130475
#  140248
#  158663
#  172080
#  191453
#
# Disc length: 2792 seconds
#
# Revision: 0
# Processed by: cddbd v1.5.2PL0 Copyright (c) Steve Scherf et al.
# Submitted via: AltoMP3_Maker 3.0
#
DISCID=bc0ae60c
DTITLE=DISK4 - ÂÄ§J´µ­·»P40§'£µ^
DYEAR=1900
DGENRE=
TTITLE0=§Ú¥u¦b¥G§A
TTITLE1=µL¨¥ªºµ²§½
TTITLE2=§Ú¤ß²`³B
TTITLE3=½Ö¯à¸T¤î§Úªº·R
TTITLE4=¨ì©³·R§Ú¤£·R
TTITLE5=¥VÅÊ
TTITLE6=§Ú«ç»ò­ú¤F
TTITLE7=§t²\ªº¤À¤â
TTITLE8=¬Û·R¤£®e©ö
TTITLE9=­·²Y²Y·Nºøºø
TTITLE10=¯à¤£¯à¯d¦í§A
TTITLE11=¤T¦~
EXTD=
EXTT0=
EXTT1=
EXTT2=
EXTT3=
EXTT4=
EXTT5=
EXTT6=
EXTT7=
EXTT8=
EXTT9=
EXTT10=
EXTT11=
PLAYORDER=
